<svg width="40" height="41" viewBox="0 0 40 41" fill="none" xmlns="http://www.w3.org/2000/svg">
<path d="M20.2711 11.7177C20.3551 11.7177 20.4382 11.7376 20.5142 11.7778L23.0907 13.1319L22.5986 10.2634C22.5696 10.0939 22.6257 9.92045 22.7486 9.80072L24.8331 7.76877L21.953 7.35029C21.7828 7.32562 21.6356 7.21822 21.5596 7.06427L20.2711 4.45433L18.9827 7.06427C18.9067 7.21822 18.7595 7.32562 18.5892 7.35029L15.7092 7.76877L17.7933 9.80072C17.9166 9.92045 17.9727 10.0939 17.9436 10.2634L17.4515 13.1319L20.0281 11.7778C20.1041 11.7376 20.1872 11.7177 20.2711 11.7177ZM23.7853 14.6101C23.7021 14.6101 23.6182 14.5906 23.5422 14.55L20.2711 12.8315L17 14.55C16.8254 14.6435 16.611 14.6276 16.4495 14.5106C16.2888 14.3937 16.208 14.1956 16.2418 13.9991L16.8668 10.3572L14.2202 7.77832C14.0774 7.63909 14.0265 7.43144 14.0878 7.24249C14.1494 7.05274 14.3129 6.9151 14.5102 6.88646L18.1668 6.355L19.8021 3.04135C19.978 2.68413 20.5643 2.68413 20.7397 3.04135L22.3755 6.355L26.032 6.88646C26.2293 6.9151 26.3928 7.05274 26.4545 7.24249C26.5158 7.43144 26.4644 7.63909 26.322 7.77832L23.6755 10.3572L24.3004 13.9991C24.3342 14.1956 24.2535 14.3937 24.0928 14.5106C24.0017 14.5767 23.8935 14.6101 23.7853 14.6101Z" fill="#E668A5"/>
<path d="M3.09366 16.6281L5.17812 18.6596C5.30104 18.7798 5.35753 18.9532 5.32809 19.1227L4.83641 21.9912L7.41255 20.6371C7.5657 20.5563 7.7467 20.5563 7.89985 20.6371L10.4756 21.9912L9.98391 19.1227C9.95447 18.9532 10.011 18.7798 10.1339 18.6596L12.2183 16.6281L9.33789 16.2092C9.16723 16.185 9.02005 16.0775 8.94407 15.9236L7.6564 13.3137L6.36793 15.9236C6.29195 16.0775 6.14477 16.185 5.97411 16.2092L3.09366 16.6281ZM11.1701 23.4702C11.0866 23.4702 11.0031 23.4499 10.9263 23.4101L7.6564 21.6909L4.38491 23.4101C4.21108 23.504 3.99746 23.4881 3.83476 23.37C3.67365 23.253 3.5929 23.0549 3.62671 22.8588L4.25125 19.2166L1.60511 16.6372C1.4627 16.4984 1.41178 16.2904 1.47304 16.1018C1.5347 15.9121 1.69819 15.7744 1.8951 15.7458L5.55205 15.2139L7.1874 11.9007C7.27531 11.7221 7.4571 11.6091 7.6564 11.6091C7.8553 11.6091 8.03709 11.7221 8.125 11.9007L9.75995 15.2139L13.4169 15.7458C13.6138 15.7744 13.7773 15.9121 13.839 16.1018C13.9002 16.2904 13.8493 16.4984 13.7069 16.6372L11.0607 19.2166L11.6853 22.8588C11.7187 23.0549 11.6383 23.253 11.4772 23.37C11.3857 23.4364 11.2783 23.4702 11.1701 23.4702Z" fill="#E668A5"/>
<path d="M32.8864 20.5768C32.9703 20.5768 33.0535 20.5967 33.1298 20.6369L35.706 21.9913L35.2143 19.1224C35.1853 18.953 35.2414 18.7795 35.3647 18.6598L37.4491 16.6279L34.5683 16.2094C34.398 16.1847 34.2508 16.0773 34.1749 15.9234L32.8864 13.3134L31.5983 15.9234C31.5223 16.0773 31.3752 16.1847 31.2049 16.2094L28.3245 16.6279L30.4089 18.6598C30.5318 18.7795 30.5879 18.953 30.5589 19.1224L30.0672 21.9913L32.6429 20.6369C32.7193 20.5967 32.8025 20.5768 32.8864 20.5768ZM29.3727 23.47C29.2644 23.47 29.1566 23.4361 29.0652 23.3697C28.9044 23.2532 28.8237 23.0547 28.8575 22.8585L29.482 19.2163L26.8359 16.6374C26.6935 16.4982 26.6422 16.2905 26.7034 16.1016C26.7655 15.9118 26.9286 15.7742 27.1259 15.7455L30.7824 15.2141L32.4174 11.9004C32.5932 11.5432 33.1796 11.5432 33.355 11.9004L34.9907 15.2141L38.6473 15.7455C38.8446 15.7742 39.0081 15.9118 39.0698 16.1016C39.131 16.2905 39.0797 16.4982 38.9373 16.6374L36.2911 19.2163L36.9157 22.8585C36.9495 23.0547 36.8687 23.2532 36.708 23.3697C36.5465 23.4879 36.3337 23.5038 36.1575 23.4099L32.8864 21.6906L29.6161 23.4099C29.5397 23.4501 29.4558 23.47 29.3727 23.47Z" fill="#E668A5"/>
<path d="M15.8495 34.6081H16.0532C16.4219 34.6081 16.7688 34.7513 17.0294 35.0126L17.4335 35.4164C17.4968 35.4796 17.5811 35.5143 17.6706 35.5143H25.3744C25.7861 35.5143 26.1202 35.1797 26.1202 34.768C26.1202 34.3563 25.7861 34.0217 25.3744 34.0217H24.6564C24.3676 34.0217 24.1336 33.7878 24.1336 33.499C24.1336 33.2098 24.3676 32.9759 24.6564 32.9759H26.0996C26.5113 32.9759 26.8462 32.6414 26.8462 32.2296C26.8462 31.8179 26.5113 31.4838 26.0996 31.4838H24.6564C24.3676 31.4838 24.1336 31.2499 24.1336 30.9607C24.1336 30.6715 24.3676 30.438 24.6564 30.438H26.2885C26.6998 30.438 27.0344 30.1034 27.0344 29.6917C27.0344 29.28 26.6998 28.9454 26.2885 28.9454H24.6564C24.3676 28.9454 24.1336 28.7115 24.1336 28.4223C24.1336 28.1331 24.3676 27.8992 24.6564 27.8992H25.981C26.3927 27.8992 26.7269 27.5651 26.7269 27.1534C26.7269 26.742 26.3927 26.4067 25.981 26.4067H21.7123C21.2178 26.4067 20.8411 26.2241 20.6517 25.8919C20.0646 24.8672 20.8466 23.7299 21.3638 22.9777C21.4859 22.7995 21.5977 22.6396 21.6713 22.5047C22.2489 21.4474 22.3436 20.5463 21.9326 20.034C21.7091 19.7555 21.3869 19.6414 21.1012 19.6366C20.9262 20.252 20.4938 20.999 20.0415 21.7807L19.7213 22.3384C18.8143 23.9499 16.5234 26.0089 15.8495 26.596V34.6081ZM25.3744 36.5601H17.6706C17.3019 36.5601 16.955 36.4169 16.694 36.1559L16.2903 35.7517C16.227 35.6885 16.1427 35.6539 16.0532 35.6539H15.3268C15.0376 35.6539 14.8037 35.42 14.8037 35.1308V26.3566C14.8037 26.203 14.8717 26.057 14.9891 25.9576C15.0173 25.9333 17.8556 23.5207 18.8103 21.8257L19.1357 21.2568C19.5705 20.5066 20.1111 19.5721 20.1362 19.1413C20.1489 18.9198 20.3001 18.7308 20.5133 18.6691C21.3224 18.4372 22.221 18.7213 22.7481 19.38C23.1531 19.8836 23.6698 21.0253 22.5894 23.0059C22.5023 23.1662 22.3714 23.3584 22.2254 23.5704C21.8364 24.1365 21.3037 24.9106 21.5559 25.3668C21.5456 25.3438 21.6072 25.3605 21.7123 25.3609H25.981C26.9691 25.3609 27.7727 26.1652 27.7727 27.1534C27.7727 27.5754 27.6259 27.9649 27.3801 28.2716C27.8057 28.5997 28.0802 29.1141 28.0802 29.6917C28.0802 30.2367 27.8363 30.7252 27.4513 31.0538C27.7254 31.3688 27.892 31.7801 27.892 32.2296C27.892 32.9294 27.4887 33.5376 26.9015 33.832C27.0698 34.1045 27.1661 34.4251 27.1661 34.768C27.1661 35.7561 26.3625 36.5601 25.3744 36.5601Z" fill="#E668A5"/>
<path d="M15.8494 37.6296H12.5393V36.5838H14.8036V26.3469H12.5393V25.3011H15.8494V37.6296Z" fill="#E668A5"/>
<path d="M13.6834 35.3423H12.5393V34.2965H13.6834V35.3423Z" fill="#E668A5"/>
</svg>
