<svg width="40" height="41" viewBox="0 0 40 41" fill="none" xmlns="http://www.w3.org/2000/svg">
<path d="M33.8143 26.6152C33.6228 25.6735 33.3359 24.7466 32.9602 23.8607C32.5905 22.9885 32.1347 22.1493 31.6064 21.3673L32.8862 20.5023C33.4703 21.3665 33.9744 22.2938 34.3831 23.2581C34.7983 24.2393 35.1165 25.2639 35.3293 26.3055L33.8143 26.6152Z" fill="#E668A5"/>
<path d="M27.641 17.4014C26.8561 16.8699 26.0173 16.4149 25.1479 16.0476C24.2605 15.6723 23.334 15.3842 22.3938 15.1928L22.7016 13.6789C23.7431 13.8909 24.7678 14.2091 25.7502 14.6247C26.71 15.0302 27.6381 15.5335 28.5071 16.1196L27.641 17.4014Z" fill="#E668A5"/>
<path d="M11.225 17.4009L10.3601 16.1208C11.2263 15.5354 12.1539 15.0313 13.1166 14.625C14.0991 14.2086 15.1237 13.8912 16.1636 13.6792L16.473 15.1931C15.5336 15.3846 14.6068 15.6726 13.7189 16.048C12.8479 16.4161 12.0091 16.8719 11.225 17.4009Z" fill="#E668A5"/>
<path d="M5.05144 26.6152L3.5376 26.3055C3.74961 25.2659 4.06742 24.2417 4.4834 23.2589C4.89012 22.2962 5.3938 21.3689 5.97954 20.5023L7.25925 21.3673C6.73023 22.1509 6.27442 22.9901 5.90632 23.8607C5.53138 24.749 5.24293 25.6759 5.05144 26.6152Z" fill="#E668A5"/>
<path d="M20.2049 17.0244H18.6597V11.0304H20.2049V17.0244Z" fill="#E668A5"/>
<path d="M10.0117 21.2466L5.77393 17.0092L6.86656 15.9165L11.1044 20.1539L10.0117 21.2466Z" fill="#E668A5"/>
<path d="M38.7497 30.3472H31.9843V28.8019H37.188C36.7821 19.36 28.9735 11.8029 19.4331 11.8029C9.89299 11.8029 2.084 19.36 1.67808 28.8019H6.8822V30.3472H0.115967V29.5744C0.115967 18.9235 8.78144 10.2576 19.4331 10.2576C30.0843 10.2576 38.7497 18.9235 38.7497 29.5744V30.3472Z" fill="#E668A5"/>
<path d="M28.8539 21.2466L27.7612 20.1539L31.999 15.9165L33.0917 17.0092L28.8539 21.2466Z" fill="#E668A5"/>
<path d="M19.4336 28.0296C18.5816 28.0296 17.8884 28.7232 17.8884 29.5748C17.8884 30.4269 18.5816 31.1205 19.4336 31.1205C20.2865 31.1205 20.9788 30.4269 20.9788 29.5748C20.9788 28.7232 20.2865 28.0296 19.4336 28.0296ZM19.4336 32.6653C17.7291 32.6653 16.3428 31.2794 16.3428 29.5748C16.3428 27.8703 17.7291 26.484 19.4336 26.484C21.1373 26.484 22.5245 27.8703 22.5245 29.5748C22.5245 31.2794 21.1373 32.6653 19.4336 32.6653Z" fill="#E668A5"/>
<path d="M21.6175 28.4819L20.5249 27.3893L26.2794 21.6348L27.3716 22.7279L21.6175 28.4819Z" fill="#E668A5"/>
</svg>
