<svg width="40" height="41" viewBox="0 0 40 41" fill="none" xmlns="http://www.w3.org/2000/svg">
<path d="M4.56304 12.7171C6.63518 14.7888 10.2245 18.2309 11.6271 19.5726C13.0301 18.2309 16.6212 14.7879 18.6916 12.7171C19.6904 11.7178 20.2388 10.4523 20.237 9.15331C20.2352 7.92836 19.7451 6.76909 18.8587 5.88796C17.032 4.07059 14.0572 4.07147 12.227 5.89677L11.6271 6.49668L11.0276 5.89677C9.20409 4.07323 6.22922 4.06574 4.39598 5.88796C3.50956 6.76909 3.02116 7.92836 3.0194 9.15331C3.01764 10.4523 3.56598 11.7178 4.56304 12.7171ZM11.6271 21.9167L11.0426 21.3587C10.991 21.3107 5.98061 16.5321 3.3641 13.916C2.04526 12.5963 1.32017 10.9032 1.32325 9.15067C1.32502 7.47215 1.99237 5.88619 3.19968 4.68505C5.49883 2.39692 9.12783 2.22634 11.6271 4.16801C14.1281 2.22369 17.7558 2.39957 20.055 4.68505C21.264 5.88619 21.9296 7.47215 21.9331 9.15067C21.9362 10.9032 21.2107 12.5963 19.891 13.916C17.2753 16.5321 12.2632 21.3107 12.212 21.3587L11.6271 21.9167Z" fill="#E668A5"/>
<path d="M27.0858 36.2974H25.3897V31.4963H32.8332V24.9127H36.8285L35.7468 16.298C34.7511 10.741 29.895 6.67645 24.207 6.67645V4.9803C30.7183 4.9803 36.2753 9.63326 37.4232 16.0432L38.7495 26.6089H34.5294V33.1925H27.0858V36.2974Z" fill="#E668A5"/>
<path d="M12.4754 37.9941H10.7793V36.2973H12.4754V37.9941Z" fill="#E668A5"/>
<path d="M12.4754 34.6016H10.7793V24.729H12.4754V34.6016Z" fill="#E668A5"/>
<path d="M14.2937 28.0444L11.6269 25.3772L8.96017 28.0444L7.76123 26.8451L11.6269 22.9793L15.4926 26.8451L14.2937 28.0444Z" fill="#E668A5"/>
<path d="M28.4207 20.6016C26.5323 20.6016 24.9971 19.0654 24.9971 17.1771H26.6932C26.6932 18.1305 27.4681 18.9054 28.4207 18.9054C29.3745 18.9054 30.1499 18.1305 30.1499 17.1771H31.846C31.846 19.0654 30.309 20.6016 28.4207 20.6016Z" fill="#E668A5"/>
<rect x="0.5" y="0.911865" width="39" height="39" stroke="black"/>
</svg>
