<svg width="40" height="41" viewBox="0 0 40 41" fill="none" xmlns="http://www.w3.org/2000/svg">
<path d="M15.3344 18.9917H14.5809C13.6933 18.9917 12.9709 18.2689 12.9709 17.3814C12.9709 17.0795 13.2152 16.8356 13.5167 16.8356C13.8181 16.8356 14.0628 17.0795 14.0628 17.3814C14.0628 17.667 14.2953 17.8994 14.5809 17.8994H15.3344C15.62 17.8994 15.8524 17.667 15.8524 17.3814V16.6278C15.8524 16.3422 15.62 16.1098 15.3344 16.1098H14.5809C13.6933 16.1098 12.9709 15.3879 12.9709 14.4999V13.7463C12.9709 12.8588 13.6933 12.1364 14.5809 12.1364H15.3344C16.222 12.1364 16.9443 12.8588 16.9443 13.7463C16.9443 14.0482 16.7 14.3092 16.3981 14.3092C16.0967 14.3092 15.8524 14.0811 15.8524 13.7797C15.8524 13.4607 15.62 13.2287 15.3344 13.2287H14.5809C14.2953 13.2287 14.0628 13.4607 14.0628 13.7463V14.4999C14.0628 14.7855 14.2953 15.0179 14.5809 15.0179H15.3344C16.222 15.0179 16.9443 15.7403 16.9443 16.6278V17.3814C16.9443 18.2689 16.222 18.9917 15.3344 18.9917Z" fill="#E668A5"/>
<path d="M14.9574 13.1116C14.656 13.1116 14.4113 12.8673 14.4113 12.5659V11.43C14.4113 11.1282 14.656 10.8839 14.9574 10.8839C15.2588 10.8839 15.5036 11.1282 15.5036 11.43V12.5659C15.5036 12.8673 15.2588 13.1116 14.9574 13.1116Z" fill="#E668A5"/>
<path d="M14.9574 20.1272C14.656 20.1272 14.4113 19.8825 14.4113 19.581V18.4452C14.4113 18.1434 14.656 17.8991 14.9574 17.8991C15.2588 17.8991 15.5036 18.1434 15.5036 18.4452V19.581C15.5036 19.8825 15.2588 20.1272 14.9574 20.1272Z" fill="#E668A5"/>
<path d="M14.9578 8.28363C13.3018 8.28363 11.684 8.85834 10.4019 9.90144C8.70759 11.2802 7.73567 13.3234 7.73567 15.5058C7.73567 18.7379 9.9137 21.5974 13.0316 22.4595C14.3058 22.8119 15.5677 22.8171 16.8516 22.4674C19.9892 21.6163 22.18 18.7528 22.18 15.5058C22.18 11.5232 18.94 8.28363 14.9578 8.28363ZM14.9578 23.8198C14.2254 23.8198 13.4789 23.7161 12.7403 23.5118C9.15093 22.5197 6.6438 19.2274 6.6438 15.5058C6.6438 12.9934 7.76247 10.6414 9.71246 9.05387C11.1888 7.85303 13.0518 7.19176 14.9578 7.19176C19.5424 7.19176 23.2719 10.9213 23.2719 15.5058C23.2719 19.2445 20.7494 22.5412 17.1376 23.5219C16.4091 23.7196 15.6758 23.8198 14.9578 23.8198Z" fill="#E668A5"/>
<path d="M23.2304 26.4429L32.9092 37.5949C33.2291 37.9737 33.6768 38.1828 34.208 38.2052C34.9989 38.236 35.8948 37.841 36.5934 37.1424C37.2925 36.4433 37.6893 35.5514 37.6563 34.7565C37.6339 34.2253 37.4252 33.7776 37.0517 33.4625L25.8944 23.7794C25.5117 24.2864 25.0965 24.7645 24.6558 25.2047C24.2164 25.645 23.7384 26.0598 23.2304 26.4429ZM34.3043 39.2993C34.2568 39.2993 34.2098 39.2984 34.1619 39.2962C33.3293 39.2611 32.5902 38.9096 32.0801 38.3054L22.0142 26.7079C21.9123 26.5906 21.8653 26.435 21.885 26.2812C21.9044 26.127 21.9887 25.9886 22.1166 25.9003C22.7559 25.46 23.3504 24.9662 23.8838 24.4327C24.4177 23.8985 24.9115 23.304 25.3518 22.6651C25.4397 22.5372 25.5785 22.4533 25.7323 22.4335C25.8878 22.4133 26.0421 22.4608 26.1594 22.5627L37.7622 32.633C38.3607 33.1387 38.7126 33.8782 38.7473 34.7104C38.7939 35.822 38.2904 36.9895 37.3654 37.9144C36.4805 38.7997 35.3724 39.2993 34.3043 39.2993Z" fill="#E668A5"/>
<path d="M14.9578 5.40421C12.3689 5.40421 9.78141 6.38887 7.81077 8.35995C5.90472 10.2656 4.85547 12.8034 4.85547 15.5061C4.85547 18.2096 5.90516 20.7475 7.81121 22.6531C11.1677 26.0096 16.4904 26.5676 20.4681 23.9787C21.0587 23.5943 21.6092 23.1488 22.1044 22.6531C22.6 22.1575 23.046 21.6065 23.4305 21.0164C26.0184 17.0396 25.4609 11.716 22.1048 8.35951C20.1346 6.38931 17.5458 5.40421 14.9578 5.40421ZM14.9754 26.6915C12.0746 26.6915 9.19176 25.5781 7.03877 23.4256C4.92665 21.3134 3.7636 18.5009 3.7636 15.5061C3.7636 12.5117 4.92665 9.6992 7.03833 7.58751C11.4058 3.22047 18.5107 3.22091 22.8768 7.58751C26.5958 11.3069 27.2136 17.2048 24.3453 21.6122V21.6127C23.9199 22.266 23.4256 22.8759 22.8764 23.4256C22.328 23.9744 21.7182 24.4687 21.0639 24.894C19.2075 26.1019 17.0866 26.6915 14.9754 26.6915ZM6.03126 6.58044C1.10971 11.502 1.10971 19.5111 6.03126 24.4326C10.3377 28.7386 17.1029 29.3568 22.1167 25.9006C22.7556 25.4599 23.3505 24.966 23.8835 24.4326C24.4178 23.8983 24.9112 23.3039 25.3514 22.665C28.8076 17.6512 28.1903 10.8869 23.8839 6.58044C18.9619 1.6589 10.9537 1.65934 6.03126 6.58044ZM14.9596 29.2219C11.423 29.2219 7.91227 27.8581 5.25926 25.2046C-0.0880485 19.8573 -0.0880485 11.1562 5.25926 5.80801C10.6066 0.460697 19.3081 0.460697 24.6559 5.80801C29.3353 10.487 30.0058 17.837 26.2509 23.285C25.7733 23.9779 25.2368 24.6238 24.6559 25.2046C24.0759 25.7846 23.43 26.3215 22.7367 26.7992C20.3776 28.4258 17.6609 29.2219 14.9596 29.2219Z" fill="#E668A5"/>
<path d="M26.7207 27.8157C26.5788 27.8157 26.4369 27.7572 26.3345 27.6557C26.233 27.5538 26.1746 27.4154 26.1746 27.27C26.1746 27.128 26.233 26.9857 26.3345 26.8837C26.5388 26.6799 26.9026 26.6799 27.1065 26.8837C27.2084 26.9857 27.2669 27.128 27.2669 27.27C27.2669 27.4154 27.2084 27.5538 27.1065 27.6557C27.0046 27.7572 26.8666 27.8157 26.7207 27.8157Z" fill="#E668A5"/>
<path d="M28.8644 30.1849C28.6495 29.9701 28.6495 29.6247 28.8644 29.4094C29.0757 29.1985 29.4215 29.1985 29.636 29.4094C29.8473 29.6247 29.8473 29.9701 29.636 30.1849C29.527 30.2904 29.3886 30.3453 29.2506 30.3453C29.1082 30.3453 28.9698 30.2904 28.8644 30.1849ZM31.3909 32.7114C31.176 32.4965 31.176 32.1507 31.3909 31.9394C31.6022 31.725 31.948 31.725 32.1624 31.9394C32.3738 32.1507 32.3738 32.4965 32.1624 32.7114C32.057 32.8169 31.915 32.8713 31.7766 32.8713C31.6347 32.8713 31.4963 32.8169 31.3909 32.7114Z" fill="#E668A5"/>
<path d="M34.3034 35.3977C34.2708 35.3977 34.2339 35.3938 34.1979 35.3867C34.161 35.3832 34.1285 35.3718 34.096 35.3573C34.063 35.3428 34.0305 35.3248 34.0011 35.3063C33.9721 35.2883 33.9431 35.2628 33.9171 35.2413C33.8921 35.2154 33.8701 35.1864 33.8521 35.1574C33.8301 35.1284 33.8156 35.0954 33.8011 35.0625C33.7866 35.0299 33.7757 34.9935 33.7682 34.9605C33.7607 34.9245 33.7572 34.888 33.7572 34.8516C33.7572 34.7096 33.8156 34.5677 33.9171 34.4658C33.9431 34.4398 33.9721 34.4183 34.0011 34.3999C34.0305 34.3783 34.063 34.3634 34.096 34.3489C34.1285 34.3344 34.161 34.3238 34.1979 34.3164C34.2669 34.3019 34.3398 34.3019 34.4123 34.3164C34.4453 34.3238 34.4817 34.3344 34.5147 34.3489C34.5472 34.3634 34.5762 34.3783 34.6092 34.3999C34.6382 34.4183 34.6637 34.4398 34.6891 34.4658C34.7911 34.5677 34.8495 34.7096 34.8495 34.8516C34.8495 34.888 34.846 34.9245 34.8385 34.9605C34.8311 34.9935 34.8236 35.0299 34.8091 35.0625C34.7946 35.0954 34.7766 35.1284 34.7586 35.1574C34.7401 35.1864 34.7146 35.2154 34.6891 35.2413C34.6637 35.2628 34.6382 35.2883 34.6092 35.3063C34.5762 35.3248 34.5472 35.3428 34.5147 35.3573C34.4817 35.3718 34.4453 35.3832 34.4123 35.3867C34.3763 35.3938 34.3398 35.3977 34.3034 35.3977Z" fill="#E668A5"/>
</svg>
